<?xml version="1.0" encoding="UTF-8" standalone="no"?>
<!-- Created with Inkscape (http://www.inkscape.org/) -->

<svg
   xmlns:dc="http://purl.org/dc/elements/1.1/"
   xmlns:cc="http://creativecommons.org/ns#"
   xmlns:rdf="http://www.w3.org/1999/02/22-rdf-syntax-ns#"
   xmlns:svg="http://www.w3.org/2000/svg"
   xmlns="http://www.w3.org/2000/svg"
   xmlns:sodipodi="http://sodipodi.sourceforge.net/DTD/sodipodi-0.dtd"
   xmlns:inkscape="http://www.inkscape.org/namespaces/inkscape"
   width="48pt"
   height="48pt"
   viewBox="0 0 16.933334 16.933333"
   version="1.1"
   id="svg979"
   inkscape:version="0.92.4 (5da689c313, 2019-01-14)"
   sodipodi:docname="16 - Eye Pencil.svg"
   inkscape:export-filename="E:\TR Design Studio Creative\Project Design\TR Creative Design\Icon Design\Project Hiring\Icon Icons\Project - 001\002 - Beauty And Fashion\Send\2 - Solid\16 - Eye Pencil.png"
   inkscape:export-xdpi="768"
   inkscape:export-ydpi="768">
  <defs
     id="defs973">
    <pattern
       y="0"
       x="0"
       height="6"
       width="6"
       patternUnits="userSpaceOnUse"
       id="EMFhbasepattern" />
    <pattern
       y="0"
       x="0"
       height="6"
       width="6"
       patternUnits="userSpaceOnUse"
       id="EMFhbasepattern-5" />
    <pattern
       y="0"
       x="0"
       height="6"
       width="6"
       patternUnits="userSpaceOnUse"
       id="EMFhbasepattern-9" />
    <pattern
       y="0"
       x="0"
       height="6"
       width="6"
       patternUnits="userSpaceOnUse"
       id="EMFhbasepattern-6" />
    <pattern
       y="0"
       x="0"
       height="6"
       width="6"
       patternUnits="userSpaceOnUse"
       id="EMFhbasepattern-0" />
    <pattern
       y="0"
       x="0"
       height="6"
       width="6"
       patternUnits="userSpaceOnUse"
       id="EMFhbasepattern-4" />
    <pattern
       y="0"
       x="0"
       height="6"
       width="6"
       patternUnits="userSpaceOnUse"
       id="EMFhbasepattern-1" />
    <pattern
       y="0"
       x="0"
       height="6"
       width="6"
       patternUnits="userSpaceOnUse"
       id="EMFhbasepattern-8" />
  </defs>
  <sodipodi:namedview
     id="base"
     pagecolor="#ffffff"
     bordercolor="#666666"
     borderopacity="1.0"
     inkscape:pageopacity="0.0"
     inkscape:pageshadow="2"
     inkscape:zoom="8.546875"
     inkscape:cx="32"
     inkscape:cy="32"
     inkscape:document-units="pt"
     inkscape:current-layer="layer1"
     showgrid="false"
     units="pt"
     inkscape:window-width="1366"
     inkscape:window-height="716"
     inkscape:window-x="-8"
     inkscape:window-y="-8"
     inkscape:window-maximized="1"
     inkscape:snap-bbox="true"
     inkscape:bbox-nodes="true"
     inkscape:snap-nodes="false"
     showguides="false">
    <inkscape:grid
       type="xygrid"
       id="grid1526" />
    <sodipodi:guide
       position="0.97013909,15.963209"
       orientation="56.666615,0"
       id="guide1528"
       inkscape:locked="false" />
    <sodipodi:guide
       position="0.97013909,0.97016731"
       orientation="0,56.666667"
       id="guide1530"
       inkscape:locked="false" />
    <sodipodi:guide
       position="15.963195,0.97016731"
       orientation="-56.666615,0"
       id="guide1532"
       inkscape:locked="false" />
    <sodipodi:guide
       position="15.963195,15.963209"
       orientation="0,-56.666667"
       id="guide1534"
       inkscape:locked="false" />
  </sodipodi:namedview>
  <metadata
     id="metadata976">
    <rdf:RDF>
      <cc:Work
         rdf:about="">
        <dc:format>image/svg+xml</dc:format>
        <dc:type
           rdf:resource="http://purl.org/dc/dcmitype/StillImage" />
        <dc:title></dc:title>
      </cc:Work>
    </rdf:RDF>
  </metadata>
  <g
     inkscape:label="Layer 1"
     inkscape:groupmode="layer"
     id="layer1"
     transform="translate(0,-280.06668)">
    <path
       id="path960"
       d="m 8.466665,281.03683 c -2.4771046,0 -4.4066387,1.043 -5.6060789,1.90347 1.4862628,1.48626 3.6765445,2.52925 5.2671065,2.63354 v -0.62578 c 0,0 0,-0.0261 0,-0.0261 0,0 0,0 0,0 v 0 c 0,-0.0261 0.026075,-0.0521 0.026075,-0.0782 0,0 0,0 0,0 l 0.7040191,-2.26851 c 0,-0.0261 0,-0.0261 0,-0.0521 0.130374,-0.3129 0.4432714,-0.46935 0.7561689,-0.46935 0.2868225,0 0.5997204,0.15645 0.7300944,0.46935 0,0.0261 0,0.0261 0,0.0521 l 0.704019,2.26851 c 0,0 0,0 0,0 0.02608,0.0261 0.02608,0.0521 0.02608,0.0782 0,0 0,0 0,0.0261 0,0 0,0 0,0 v 0.10434 c 1.121215,-0.5215 2.112057,-1.27767 2.972525,-2.13813 -1.19944,-0.86047 -3.128974,-1.87739 -5.5800046,-1.87739 z m 1.1472906,1.6688 c -0.078225,0 -0.1042991,0.0261 -0.1564489,0.0782 l -0.5475704,1.82523 H 10.2919 l -0.5475706,-1.82523 c -0.026075,-0.0521 -0.078225,-0.0782 -0.1303738,-0.0782 z m 4.9542094,0.59972 c -1.121216,1.04299 -2.346731,2.00775 -3.494022,2.45102 v 1.40804 c 0.443272,-0.15645 0.886544,-0.3129 1.277665,-0.49542 l 0.417196,0.59972 c 0.260749,0.39112 0.834394,0 0.547571,-0.36505 l -0.391122,-0.5215 c 0.495421,-0.28682 0.912617,-0.57364 1.277664,-0.83438 l 0.495421,0.49541 c 0.286824,0.36505 0.808319,-0.15645 0.443272,-0.46935 l -0.417196,-0.41719 c 0.417196,-0.39112 0.677944,-0.65186 0.677944,-0.65186 0.104304,-0.10434 0.104304,-0.3129 0,-0.41721 0,0 -0.312897,-0.33896 -0.834393,-0.78223 z m -12.2290746,0.0261 c -0.4954209,0.41721 -0.8083183,0.75617 -0.8083183,0.75617 -0.1042991,0.10434 -0.1042991,0.3129 0,0.41721 0,0 0.1825235,0.20859 0.5214957,0.49541 l -0.4432714,0.44327 c -0.3128973,0.3129 0.1564488,0.78225 0.4693462,0.46935 l 0.4693461,-0.49542 c 0.3911219,0.3129 0.860468,0.65188 1.4341132,0.96477 l -0.365047,0.52149 c -0.2868226,0.36506 0.2868226,0.75617 0.5214957,0.36506 l 0.4432713,-0.59972 c 0.4432714,0.2086 0.9386925,0.39111 1.4862628,0.54756 l -0.2085983,0.57366 c -0.1825235,0.41719 0.4432714,0.65186 0.59972,0.23466 l 0.2346732,-0.65187 c 0.4693459,0.10435 0.9386923,0.15645 1.434113,0.18253 v -1.30374 c -2.1902819,-0.28682 -4.3023394,-1.27767 -5.7886022,-2.92038 z m 6.4404717,1.92953 v 3.59833 h 1.6427119 v -3.59833 z m 0,4.2502 v 0.65187 h 1.6427119 v -0.65187 z m 0,1.30374 c 0,1.09513 0,3.25935 0,3.25935 h 1.6427119 v -3.25935 z m 3.9112179,0.65186 c -0.521495,0 -0.964767,0.44327 -0.964767,0.96477 v 3.25935 c 0,0.18252 0.130375,0.33897 0.312897,0.33897 h 2.294582 c 0.182524,0 0.312897,-0.15645 0.312897,-0.33897 v -3.25935 c 0,-0.5215 -0.443272,-0.96477 -0.964767,-0.96477 z m -3.5722455,3.25936 v 0.80831 c 0,0.28683 0.2085982,0.49542 0.4954211,0.49542 0.2607478,0 0.4693464,-0.20859 0.4693464,-0.49542 v -0.80831 z"
       style="fill:#dd8f13;fill-opacity:1;fill-rule:nonzero;stroke:none;stroke-width:0.26458335"
       inkscape:connector-curvature="0" />
  </g>
</svg>
